<svg xmlns="http://www.w3.org/2000/svg" viewBox="0 0 100 120" fill="none" stroke="currentColor" stroke-width="1.5" stroke-linecap="round" stroke-linejoin="round" class="logo-medium">
    <rect x="15" y="20" width="70" height="90" rx="4" ry="4"/>
    <rect x="35" y="10" width="30" height="15" rx="3" ry="3" fill="currentColor"/>
    <circle cx="50" cy="12" r="2" fill="white"/>
    <circle cx="35" cy="40" r="12" fill="none"/>
    <path d="M 35 28 A 12 12 0 0 1 47 40 L 35 40 Z"/>
    <path d="M 35 40 L 47 40 A 12 12 0 0 1 41 50 L 35 40 Z"/>
    <path d="M 35 40 L 41 50 A 12 12 0 0 1 29 50 L 35 40 Z"/>
    <path d="M 35 40 L 29 50 A 12 12 0 0 1 35 28 L 35 40 Z"/>
    <line x1="55" y1="35" x2="75" y2="35"/>
    <line x1="55" y1="40" x2="75" y2="40"/>
    <line x1="55" y1="45" x2="70" y2="45"/>
    <line x1="55" y1="50" x2="72" y2="50"/>
    <line x1="25" y1="65" x2="75" y2="65"/>
    <line x1="25" y1="70" x2="70" y2="70"/>
    <line x1="25" y1="75" x2="65" y2="75"/>
    <rect x="30" y="90" width="4" height="8"/>
    <rect x="36" y="85" width="4" height="13"/>
    <rect x="42" y="88" width="4" height="10"/>
    <rect x="48" y="82" width="4" height="16"/>
    <rect x="54" y="80" width="4" height="18"/>
    <path d="M 60 92 L 70 82"/>
    <path d="M 65 82 L 70 82 L 70 87"/>
</svg>